<svg width="512" height="512" viewBox="0 0 512 512" fill="none" xmlns="http://www.w3.org/2000/svg">
<rect width="512" height="512" fill="#008000"/>
<path d="M404.516 207.305H334.523C333.244 198.249 330.634 190.206 326.693 183.175C322.751 176.037 317.691 169.964 311.512 164.957C305.333 159.95 298.195 156.115 290.098 153.452C282.108 150.788 273.426 149.457 264.051 149.457C247.112 149.457 232.357 153.665 219.786 162.081C207.215 170.391 197.467 182.536 190.542 198.516C183.617 214.389 180.155 233.672 180.155 256.364C180.155 279.695 183.617 299.297 190.542 315.17C197.573 331.044 207.374 343.029 219.945 351.126C232.517 359.222 247.058 363.271 263.571 363.271C272.84 363.271 281.416 362.045 289.299 359.595C297.289 357.145 304.374 353.576 310.553 348.888C316.732 344.094 321.845 338.288 325.894 331.47C330.048 324.652 332.925 316.875 334.523 308.139L404.516 308.459C402.705 323.48 398.177 337.969 390.933 351.925C383.795 365.774 374.154 378.185 362.009 389.158C349.97 400.025 335.588 408.654 318.862 415.046C302.243 421.332 283.44 424.474 262.453 424.474C233.262 424.474 207.161 417.869 184.15 404.659C161.245 391.449 143.134 372.326 129.818 347.29C116.607 322.255 110.002 291.946 110.002 256.364C110.002 220.675 116.714 190.312 130.137 165.277C143.561 140.241 161.778 121.172 184.789 108.068C207.801 94.8579 233.688 88.2528 262.453 88.2528C281.416 88.2528 298.994 90.9162 315.187 96.2429C331.487 101.57 345.922 109.347 358.493 119.574C371.064 129.695 381.291 142.106 389.175 156.808C397.165 171.509 402.279 188.342 404.516 207.305Z" fill="white"/>
<circle cx="384" cy="92" r="36" fill="#ED1B43"/>
</svg>
